Coordinates
version=1
nRows=54
nColumns=12
inDegrees=yes

Units are S.I. units (second, meters, Newtons, ...)
Angles are in degrees

endheader
time	SC_y	SC_z	SC_x	AC_y	AC_z	AC_x	GH_y	GH_z	GH_yy	EL_x	PS_y
       0.0              -49.83          10.14          45.64          69.01          -9.35         -19.46         -169.6          33.22          111.5          31.29          13.43
   0.01288              -49.82          10.15          45.64           69.0         -9.347         -19.46         -169.6          33.22          111.5           31.3          13.44
   0.02575              -49.82          10.15          45.63           69.0         -9.344         -19.46         -169.6          33.23          111.5           31.3          13.45
   0.03863              -49.81          10.15          45.63          68.99         -9.341         -19.46         -169.6          33.24          111.4          31.31          13.47
    0.0515              -49.81          10.15          45.63          68.99         -9.338         -19.46         -169.6          33.24          111.4          31.31          13.48
   0.06438               -49.8          10.15          45.62          68.98         -9.335         -19.46         -169.6          33.25          111.4          31.32           13.5
   0.07725               -49.8          10.16          45.62          68.97         -9.331         -19.46         -169.5          33.26          111.3          31.33          13.51
   0.09013              -49.79          10.16          45.61          68.97         -9.327         -19.46         -169.5          33.27          111.3          31.33          13.53
     0.103              -49.78          10.16          45.61          68.96         -9.323         -19.46         -169.5          33.28          111.2          31.34          13.55
    0.1159              -49.77          10.17           45.6          68.95         -9.319         -19.46         -169.5          33.29          111.2          31.35          13.57
    0.1288              -49.77          10.17          45.59          68.94         -9.314         -19.46         -169.4           33.3          111.1          31.36          13.59
    0.1416              -49.76          10.17          45.59          68.94         -9.309         -19.46         -169.4          33.32          111.1          31.37          13.61
    0.1545              -49.75          10.18          45.58          68.93         -9.303         -19.46         -169.4          33.33          111.0          31.38          13.63
    0.1674              -49.74          10.18          45.57          68.92         -9.297         -19.46         -169.4          33.34          111.0          31.39          13.66
    0.1803              -49.73          10.18          45.56           68.9         -9.291         -19.46         -169.3          33.36          110.9           31.4          13.69
    0.1931              -49.71          10.19          45.55          68.89         -9.284         -19.46         -169.3          33.38          110.8          31.41          13.72
     0.206               -49.7          10.19          45.54          68.88         -9.276         -19.46         -169.2          33.39          110.7          31.43          13.75
    0.2189              -49.69           10.2          45.53          68.86         -9.268         -19.46         -169.2          33.41          110.7          31.44          13.78
    0.2318              -49.67          10.21          45.52          68.85         -9.259         -19.46         -169.1          33.44          110.6          31.46          13.82
    0.2446              -49.65          10.21          45.51          68.83         -9.249         -19.46         -169.1          33.46          110.5          31.48          13.87
    0.2575              -49.64          10.22          45.49          68.81         -9.238         -19.46         -169.0          33.49          110.3           31.5          13.91
    0.2704              -49.61          10.23          45.48          68.79         -9.226         -19.46         -169.0          33.52          110.2          31.52          13.96
    0.2833              -49.59          10.24          45.46          68.77         -9.213         -19.46         -168.9          33.55          110.1          31.55          14.02
    0.2961              -49.57          10.25          45.44          68.74         -9.198         -19.46         -168.8          33.58          109.9          31.57          14.09
     0.309              -49.54          10.26          45.42          68.71         -9.182         -19.46         -168.7          33.62          109.7           31.6          14.16
    0.3219              -49.51          10.27           45.4          68.68         -9.164         -19.46         -168.6          33.67          109.6          31.64          14.23
    0.3348              -49.47          10.28          45.37          68.65         -9.144         -19.46         -168.5          33.72          109.3          31.68          14.32
    0.3476              -49.43           10.3          45.34          68.61         -9.121         -19.46         -168.4          33.77          109.1          31.72          14.42
    0.3605              -49.39          10.32          45.31          68.56         -9.095         -19.46         -168.2          33.84          108.8          31.77          14.53
    0.3734              -49.34          10.34          45.27          68.51         -9.065         -19.46         -168.1          33.91          108.5          31.82          14.66
    0.3863              -49.28          10.36          45.22          68.45         -9.032         -19.46         -167.9          33.99          108.2          31.89           14.8
    0.3991              -49.21          10.38          45.17          68.38         -8.993         -19.46         -167.7          34.08          107.8          31.96          14.97
     0.412              -49.13          10.41          45.12          68.31         -8.949         -19.46         -167.4          34.19          107.3          32.04          15.16
    0.4249              -49.04          10.45          45.05          68.22         -8.897         -19.46         -167.2          34.32          106.7          32.14          15.39
    0.4378              -48.94          10.49          44.97          68.11         -8.837         -19.46         -166.8          34.46          106.1          32.25          15.65
    0.4506              -48.82          10.54          44.88          67.98         -8.766         -19.46         -166.4          34.64          105.4          32.38          15.95
    0.4635              -48.67           10.6          44.76          67.84         -8.681         -19.46         -166.0          34.84          104.5          32.54          16.32
    0.4764              -48.49          10.66          44.63          67.66          -8.58         -19.46         -165.4          35.09          103.4          32.73          16.76
    0.4893              -48.28          10.75          44.47          67.44         -8.457         -19.46         -164.7          35.39          102.1          32.96          17.29
    0.5021              -48.02          10.85          44.28          67.18         -8.307         -19.46         -163.9          35.75          100.5          33.24          17.94
     0.515               -47.7          10.97          44.03          66.86         -8.122         -19.46         -162.9           36.2          98.56          33.59          18.74
    0.5279               -47.3          11.13          43.73          66.45         -7.891         -19.46         -161.6          36.76          96.12          34.02          19.73
    0.5408               -46.8          11.32          43.35          65.95           -7.6         -19.46         -160.0          37.47          93.05          34.56          20.99
    0.5536              -46.16          11.57          42.87           65.3         -7.231         -19.46         -158.0          38.37          89.15          35.26          22.58
    0.5665              -45.34          11.89          42.25          64.47         -6.758         -19.46         -155.4          39.52          84.16          36.14          24.63
    0.5794              -44.29           12.3          41.45          63.41         -6.151         -19.45         -152.0          40.99          77.76          37.28          27.25
    0.5923              -42.95          12.82          40.44          62.05         -5.376         -19.45         -147.7          42.88          69.57          38.73           30.6
    0.6051              -41.26          13.48          39.16          60.35         -4.401         -19.45         -142.4          45.24          59.29          40.55          34.81
     0.618               -39.2          14.28          37.61          58.27         -3.213         -19.44         -135.8          48.13          46.75          42.77          39.94
    0.6309              -36.82          15.21           35.8          55.86         -1.836         -19.44         -128.2          51.48          32.21          45.35          45.89
    0.6438              -34.23          16.21          33.85          53.25         -0.345         -19.43         -120.0           55.1          16.48          48.14          52.33
    0.6566              -31.65          17.21           31.9          50.64          1.146         -19.43         -111.8          58.73         0.7418          50.93          58.77
    0.6695              -29.27          18.14           30.1          48.23          2.523         -19.42         -104.2          62.07         -13.79          53.51          64.71
    0.6824              -27.21          18.94          28.54          46.15          3.711         -19.42         -97.69          64.96         -26.33          55.73          69.85
